<svg xmlns="http://www.w3.org/2000/svg"
    xmlns:xlink="http://www.w3.org/1999/xlink" width="800" height="800" clipboard-id="document_191ocks">
    <ellipse cx="0" cy="0" rx="200" ry="200" stroke-width="50" stroke="#000000" fill="#0000" transform="matrix(1 0 0 1 400 400)" class="" vector-effect="null" stroke-linecap="butt"/>
    <line x1="-124.31700134277344" y1="-0.0000059604644775390625" x2="75.68299865722656" y2="-0.000018234566596220247" stroke-width="50" stroke="#000000" transform="matrix(1 0 0 1 524.317 200)" class="" stroke-linejoin="bevel" stroke-linecap="round"/>
    <line x1="-0.00011277199519099668" y1="100.92281341552734" x2="0.00014425543486140668" y2="-99.07718658447266" stroke-width="50" stroke-linecap="round" stroke-linejoin="bevel" stroke="#000000" transform="matrix(1 0 0 1 200 299.077)" class=""/>
    <line x1="3.144670009613037" y1="39.65589141845703" x2="-196.85533142089844" y2="39.65589141845703" stroke-width="50" stroke-linecap="round" stroke-linejoin="bevel" stroke="#000000" transform="matrix(1 0 0 1 396.855 560.344)" class=""/>
    <line x1="203.14466857910156" y1="-160.34410095214844" x2="203.14466857910156" y2="39.65589904785156" stroke-width="50" stroke-linecap="round" stroke-linejoin="bevel" stroke="#000000" transform="matrix(1 0 0 1 396.855 560.344)" class=""/>
    <line x1="-129.8268280029297" y1="-311.2341613769531" x2="11.595718383789062" y2="-452.6567077636719" stroke-width="50" stroke-linecap="round" stroke-linejoin="bevel" stroke="#000000" transform="matrix(1 0 0 1 388.407 569.814)" class=""/>
    <line x1="85.44905853271484" y1="-401.7923889160156" x2="-55.97229766845703" y2="-260.37103271484375" stroke-width="50" stroke-linecap="round" stroke-linejoin="bevel" stroke="#000000" transform="matrix(1 0 0 1 455.971 943.212)" class=""/>
    <line x1="-123.53695678710938" y1="-350.9287109375" x2="-264.95831298828125" y2="-492.3500671386719" stroke-width="50" stroke-linecap="round" stroke-linejoin="bevel" stroke="#000000" transform="matrix(1 0 0 1 382.117 892.349)" class=""/>
    <line x1="-49.68301010131836" y1="-724.3263549804688" x2="91.73834228515625" y2="-582.905029296875" stroke-width="50" stroke-linecap="round" stroke-linejoin="bevel" stroke="#000000" transform="matrix(1 0 0 1 591.103 982.906)" class=""/>
</svg>